<?xml version="1.0" encoding="UTF-8"?>
<svg width="800px" height="800px" viewBox="0 0 24 24" version="1.1" xmlns="http://www.w3.org/2000/svg">
    <g id="iss-icon" stroke="none" stroke-width="1" fill="#33C3F0" fill-rule="evenodd">
        <path d="M21,11h-3.184A2.982,2.982,0,0,0,16,9.184V6a1,1,0,0,0-2,0V9.184A2.982,2.982,0,0,0,12.184,11H10V9a1,1,0,0,0-2,0v2H6.184A2.982,2.982,0,0,0,4.184,9.184,2.982,2.982,0,0,0,3,8.184V6A1,1,0,0,0,1,6V8.184a4.957,4.957,0,0,0,1.843,3.841A4.957,4.957,0,0,0,4.684,13H8v2a1,1,0,0,0,2,0V13h2.184A2.982,2.982,0,0,0,14,14.816V18a1,1,0,0,0,2,0V14.816A2.982,2.982,0,0,0,17.816,13H21a1,1,0,0,0,0-2Z"/>
    </g>
</svg>